<svg xmlns="http://www.w3.org/2000/svg" viewBox="0 0 32 32" fill="none">
  <rect width="32" height="32" rx="8" fill="#111118"/>
  <rect x="0.5" y="0.5" width="31" height="31" rx="7.5" stroke="#c0c8d4" stroke-opacity="0.2"/>
  <g transform="translate(4, 2) scale(0.54)">
    <path d="M22 10c10.5 1 16.5 8 16 29H15c0-9 10-6.5 8-21" fill="#c0c8d4"/>
    <path d="M24 18c.38 2.91-5.55 7.37-8 9-3 2-2.82 4.34-5 4-1.042-.94 1.41-3.04 0-3-1 0 .19 1.23-1 2-1 0-4.003 1-4-4 0-2 6-12 6-12s1.89-1.9 2-3.5c-.73-.994-.5-2-.5-3 1-1 3 2.5 3 2.5h2s.78-1.992 2.5-3c1 0 1 3 1 3" fill="#c0c8d4"/>
    <path d="M9.5 25.5a.5.5 0 1 1-1 0 .5.5 0 1 1 1 0z" fill="#111118"/>
    <path d="M14.933 15.75a.5 1.5 30 1 1-.866-.5.5 1.5 30 1 1 .866.5z" fill="#111118"/>
  </g>
</svg>
